<svg xmlns="http://www.w3.org/2000/svg" viewBox="0 0 900 249"><g fill-rule="nonzero" fill="none"><path d="M129.58 150c4.191 0 6.287-1.576 6.287-4.728 0-2.876-1.667-4.436-5.003-4.681l9.134-18.543 10.052 18.543c-3.244.306-4.865 1.866-4.865 4.681 0 3.152 2.096 4.728 6.288 4.728h9.317c4.192 0 6.288-1.576 6.288-4.728 0-3.12-2.096-4.681-6.288-4.681L133.618 90.47h-9.73c-4.192 0-6.288 1.576-6.288 4.727 0 3.121 2.096 4.682 6.288 4.682h4.176l6.518 12.163-14.137 28.549c-4.161 0-6.242 1.56-6.242 4.681 0 3.152 2.096 4.728 6.288 4.728h9.088z" fill="#CF005A"/><path d="M199.437 151.377c4.773 0 9.133-.826 13.08-2.479 2.938-1.224 5.34-2.906 7.207-5.048 1.285-1.47 1.927-2.846 1.927-4.131 0-1.285-.474-2.402-1.422-3.35-.95-.95-2.05-1.424-3.305-1.424-.704 0-1.331.146-1.882.436-.55.291-1.316.926-2.295 1.905-1.591 1.622-3.09 2.708-4.498 3.259-2.417.948-5.37 1.423-8.858 1.423-5.845 0-10.412-1.515-13.701-4.544-3.29-3.03-4.934-6.808-4.934-11.337v-6.105c0-3.794.903-7.068 2.708-9.822 1.805-2.754 3.886-4.743 6.242-5.967 2.356-1.224 4.942-1.836 7.757-1.836 2.264 0 4.52.414 6.77 1.24 2.249.826 4 1.927 5.255 3.304.643.704 1.071 1.699 1.285 2.984.368 1.928.934 3.243 1.699 3.947.765.704 1.774 1.056 3.029 1.056 1.377 0 2.501-.482 3.374-1.446.872-.964 1.308-2.578 1.308-4.842v-7.987c0-2.264-.436-3.87-1.308-4.82-.873-.948-1.997-1.422-3.374-1.422-.796 0-1.538.199-2.226.597-.689.398-1.324.994-1.905 1.79a23.936 23.936 0 00-6.632-2.869c-2.372-.627-4.919-.94-7.642-.94-4.529 0-8.813 1.147-12.852 3.442s-7.198 5.561-9.478 9.799c-2.28 4.238-3.42 8.805-3.42 13.7v6.38c0 4.682 1.27 9.004 3.81 12.967 2.54 3.962 5.615 6.862 9.226 8.698 4.467 2.294 9.486 3.442 15.055 3.442z" fill="#0091FF"/><path d="M253.092 151.515c4.314 0 8.453-1.002 12.415-3.007 3.963-2.004 6.946-4.697 8.95-8.078 2.005-3.381 3.007-6.877 3.007-10.488 0-3.794-1.01-7.489-3.03-11.084-2.019-3.595-5.01-6.456-8.973-8.583-3.962-2.127-8.085-3.19-12.37-3.19-4.252 0-8.33 1.04-12.231 3.121-3.902 2.08-6.893 4.934-8.973 8.56-2.081 3.626-3.121 7.32-3.121 11.085 0 3.702 1.025 7.252 3.075 10.648 2.05 3.397 5.033 6.082 8.95 8.055 3.917 1.974 8.017 2.96 12.3 2.96zm0-9.41c-4.192 0-7.726-1.277-10.603-3.832-2.876-2.555-4.314-5.301-4.314-8.239 0-3.58 1.423-6.732 4.268-9.455 2.846-2.723 6.396-4.085 10.649-4.085 4.834 0 8.736 1.714 11.704 5.14 2.172 2.54 3.259 5.325 3.259 8.354 0 2.968-1.438 5.73-4.315 8.285-2.876 2.555-6.426 3.832-10.648 3.832zM300.55 150c2.264 0 3.878-.436 4.842-1.308.964-.872 1.446-1.997 1.446-3.374 0-1.774-.75-3.12-2.25-4.039-.703-.459-2.263-.688-4.68-.688v-17.487c2.508-2.724 4.581-4.506 6.218-5.348 1.637-.841 3.542-1.262 5.715-1.262 2.876 0 5.033.612 6.471 1.836 1.102.949 1.653 2.448 1.653 4.498v17.763c-1.99 0-3.458.436-4.406 1.308-.949.872-1.423 1.997-1.423 3.373 0 1.408.482 2.548 1.446 3.42.963.872 2.577 1.308 4.842 1.308h8.491c2.264 0 3.878-.436 4.842-1.308.964-.872 1.446-1.997 1.446-3.374 0-1.407-.474-2.547-1.423-3.42-.948-.871-2.417-1.307-4.406-1.307v-17.487c0-4.468-1.285-8.079-3.855-10.833-3.244-3.457-7.65-5.186-13.22-5.186-2.417 0-4.658.367-6.723 1.102a17.832 17.832 0 00-5.669 3.304v-3.167h-8.95c-2.264 0-3.878.436-4.842 1.308-.964.872-1.446 1.997-1.446 3.374s.474 2.509 1.423 3.396c.948.888 2.417 1.331 4.406 1.331v22.858c-2.417 0-3.993.23-4.728.688-1.468.949-2.203 2.28-2.203 3.993 0 1.408.482 2.548 1.446 3.42.964.872 2.578 1.308 4.842 1.308h10.695zm71.096 1.515c3.03 0 6.755-.605 11.177-1.813 4.421-1.209 7.382-2.532 8.881-3.97.98-.888 1.469-1.944 1.469-3.168 0-1.315-.452-2.432-1.354-3.35-.903-.918-1.966-1.377-3.19-1.377-.887 0-2.111.398-3.672 1.193-4.07 2.05-8.507 3.075-13.31 3.075-3.305 0-5.6-.504-6.885-1.514-.826-.643-1.24-1.974-1.24-3.993v-18.865h17.396c2.264 0 3.878-.436 4.842-1.308.964-.872 1.446-1.996 1.446-3.373 0-1.408-.482-2.548-1.446-3.42-.964-.872-2.578-1.308-4.842-1.308h-17.396v-8.491c0-2.264-.436-3.878-1.308-4.842-.872-.964-1.996-1.446-3.373-1.446-1.408 0-2.548.482-3.42 1.446-.872.964-1.308 2.578-1.308 4.842v8.491h-3.396c-2.265 0-3.879.436-4.843 1.308-.963.872-1.445 1.997-1.445 3.374 0 1.407.482 2.547 1.445 3.42.964.871 2.578 1.307 4.843 1.307h3.396v20.7c0 3.672 1.461 6.77 4.384 9.295 2.922 2.524 7.305 3.787 13.15 3.787zM433.702 150c2.264 0 3.879-.436 4.842-1.308.964-.872 1.446-1.997 1.446-3.374 0-1.407-.482-2.547-1.446-3.42-.963-.871-2.578-1.307-4.842-1.307H420.3v-14.183c3.916-3.304 7.183-5.783 9.8-7.435 2.615-1.653 4.581-2.479 5.897-2.479 1.01 0 2.157.582 3.442 1.744 1.286 1.163 2.51 1.744 3.672 1.744 1.316 0 2.44-.466 3.374-1.4.933-.933 1.4-2.073 1.4-3.419 0-1.591-.98-3.152-2.938-4.682-2.876-2.264-5.844-3.396-8.904-3.396-1.989 0-4.123.474-6.403 1.423-2.28.948-5.393 2.846-9.34 5.691v-5.875h-12.806c-2.264 0-3.878.436-4.842 1.308-.964.872-1.446 1.997-1.446 3.374 0 1.407.482 2.547 1.446 3.42.964.871 2.578 1.307 4.842 1.307h3.397v22.858h-5.6c-2.264 0-3.878.436-4.842 1.308-.964.872-1.446 1.997-1.446 3.373 0 1.408.482 2.548 1.446 3.42.964.872 2.578 1.308 4.842 1.308h28.411zm45.027 1.515c4.314 0 8.452-1.002 12.415-3.007 3.963-2.004 6.946-4.697 8.95-8.078 2.004-3.381 3.007-6.877 3.007-10.488 0-3.794-1.01-7.489-3.03-11.084-2.02-3.595-5.01-6.456-8.973-8.583-3.962-2.127-8.086-3.19-12.37-3.19-4.253 0-8.33 1.04-12.231 3.121-3.902 2.08-6.893 4.934-8.974 8.56-2.08 3.626-3.12 7.32-3.12 11.085 0 3.702 1.024 7.252 3.075 10.648 2.05 3.397 5.033 6.082 8.95 8.055 3.916 1.974 8.017 2.96 12.3 2.96zm0-9.41c-4.193 0-7.727-1.277-10.603-3.832-2.876-2.555-4.314-5.301-4.314-8.239 0-3.58 1.422-6.732 4.268-9.455s6.395-4.085 10.649-4.085c4.834 0 8.736 1.714 11.704 5.14 2.172 2.54 3.258 5.325 3.258 8.354 0 2.968-1.438 5.73-4.314 8.285-2.876 2.555-6.426 3.832-10.648 3.832zM551.064 150c2.265 0 3.879-.436 4.843-1.308.964-.872 1.446-1.997 1.446-3.374 0-1.407-.482-2.547-1.446-3.42-.964-.871-2.578-1.307-4.843-1.307h-11.29V90.47H522.79c-2.264 0-3.878.436-4.842 1.308-.964.872-1.446 1.996-1.446 3.373 0 1.408.49 2.548 1.469 3.42.979.872 2.585 1.308 4.819 1.308h7.573v40.712h-11.29c-2.265 0-3.88.436-4.843 1.308-.964.872-1.446 1.997-1.446 3.373 0 1.408.482 2.548 1.446 3.42.964.872 2.578 1.308 4.842 1.308h31.991z" fill="#455A64"/><path d="M594.668 150c2.264 0 3.878-.436 4.842-1.308.964-.872 1.446-1.997 1.446-3.374 0-1.407-.482-2.547-1.446-3.42-.964-.871-2.578-1.307-4.842-1.307h-9.639v-13.77h8.262c0 2.479.23 4.07.688 4.774.95 1.5 2.28 2.249 3.994 2.249 1.407 0 2.547-.482 3.42-1.446.871-.964 1.307-2.578 1.307-4.842v-10.832c0-2.265-.436-3.879-1.308-4.843-.872-.964-1.996-1.445-3.373-1.445-1.745 0-3.09.75-4.04 2.249-.458.703-.688 2.28-.688 4.727h-8.262V103.78h24.005v4.957c0 2.265.436 3.871 1.308 4.82.872.948 1.997 1.422 3.374 1.422 1.407 0 2.547-.481 3.42-1.445.871-.964 1.307-2.563 1.307-4.797V94.371l-44.292-.046c-2.264 0-3.878.436-4.842 1.308-.964.872-1.446 2.012-1.446 3.42 0 1.407.482 2.547 1.446 3.42.964.871 2.578 1.307 4.842 1.307h1.47v36.81h-1.47c-2.233 0-3.84.437-4.819 1.309-.98.872-1.469 1.997-1.469 3.373 0 1.408.482 2.548 1.446 3.42.964.872 2.578 1.308 4.842 1.308h20.517z" fill="#0091FF"/><path d="M663.883 150c2.264 0 3.878-.436 4.842-1.308.964-.872 1.446-1.997 1.446-3.374 0-1.407-.482-2.547-1.446-3.42-.964-.871-2.578-1.307-4.842-1.307h-11.291V90.47h-16.983c-2.264 0-3.878.436-4.842 1.308-.964.872-1.446 1.996-1.446 3.373 0 1.408.49 2.548 1.469 3.42.98.872 2.586 1.308 4.82 1.308h7.573v40.712h-11.291c-2.265 0-3.879.436-4.843 1.308-.964.872-1.445 1.997-1.445 3.373 0 1.408.481 2.548 1.445 3.42.964.872 2.578 1.308 4.843 1.308h31.99zm40.482 1.515c4.315 0 8.453-1.002 12.416-3.007 3.962-2.004 6.946-4.697 8.95-8.078 2.004-3.381 3.006-6.877 3.006-10.488 0-3.794-1.01-7.489-3.029-11.084-2.02-3.595-5.01-6.456-8.973-8.583-3.963-2.127-8.086-3.19-12.37-3.19-4.253 0-8.33 1.04-12.232 3.121-3.901 2.08-6.892 4.934-8.973 8.56-2.08 3.626-3.12 7.32-3.12 11.085 0 3.702 1.024 7.252 3.074 10.648 2.05 3.397 5.034 6.082 8.95 8.055 3.917 1.974 8.017 2.96 12.301 2.96zm0-9.41c-4.192 0-7.726-1.277-10.602-3.832-2.877-2.555-4.315-5.301-4.315-8.239 0-3.58 1.423-6.732 4.269-9.455s6.395-4.085 10.648-4.085c4.835 0 8.736 1.714 11.704 5.14 2.173 2.54 3.26 5.325 3.26 8.354 0 2.968-1.439 5.73-4.315 8.285-2.877 2.555-6.426 3.832-10.649 3.832zM754.257 150l6.517-17.35L767.66 150h8.72l7.712-32.267c1.652-.122 2.9-.62 3.74-1.491.842-.872 1.263-1.936 1.263-3.19 0-1.408-.482-2.548-1.446-3.42-.964-.872-2.578-1.308-4.842-1.308h-8.859c-2.264 0-3.878.436-4.842 1.308-.964.872-1.446 1.997-1.446 3.374 0 1.744.735 3.09 2.203 4.039.735.459 2.265.688 4.59.688l-3.672 14.917-5.875-15.284h-8.353l-5.83 15.284-3.58-14.917c2.418 0 4.04-.367 4.866-1.101 1.101-.98 1.652-2.173 1.652-3.58 0-1.408-.482-2.548-1.446-3.42-.964-.872-2.578-1.308-4.842-1.308h-8.767c-2.264 0-3.878.436-4.842 1.308-.964.872-1.446 1.997-1.446 3.374 0 1.316.436 2.41 1.308 3.282.873.872 2.165 1.354 3.879 1.445L745.398 150h8.859z" fill="#455A64"/></g></svg>